<svg xmlns="http://www.w3.org/2000/svg" width="747pt" height="493pt" viewBox="0.00 0.00 747.10 492.70" xmlns:xlink="http://www.w3.org/1999/xlink">
<style>
a.external_repository_anchor {
  fill: #0366d6;
  text-decoration: underline;
}
</style><g id="graph0" class="graph" transform="scale(1 1) rotate(0) translate(4 488.7)">
<title>MailMessageDependenciesGraph</title>
<polygon fill="white" stroke="transparent" points="-4,4 -4,-488.7 743.1,-488.7 743.1,4 -4,4" />

<g id="node1" class="node">
<title>BonaFideCharacterSet</title>
<ellipse fill="none" stroke="black" cx="347.71" cy="-206.35" rx="98.08" ry="26.74" />
<text text-anchor="middle" x="347.71" y="-210.15" font-family="monospace" font-size="12px"><a href="https://github.com/YOCKOW/SwiftBonaFideCharacterSet.git" xlink:href="https://github.com/YOCKOW/SwiftBonaFideCharacterSet.git" class="external_repository_anchor">BonaFideCharacterSet</a></text>
<text text-anchor="middle" x="347.71" y="-195.15" font-family="monospace" font-size="12px">@1.6.2</text>
</g>

<g id="node5" class="node">
<title>Predicate</title>
<ellipse fill="none" stroke="black" cx="362.71" cy="-116.61" rx="47.25" ry="26.74" />
<text text-anchor="middle" x="362.71" y="-120.41" font-family="monospace" font-size="12px"><a href="https://github.com/YOCKOW/SwiftPredicate.git" xlink:href="https://github.com/YOCKOW/SwiftPredicate.git" class="external_repository_anchor">Predicate</a></text>
<text text-anchor="middle" x="362.71" y="-105.41" font-family="monospace" font-size="12px">@1.2.1</text>
</g>

<g id="edge1" class="edge">
<title>BonaFideCharacterSet-&gt;Predicate</title>
<path fill="none" stroke="black" d="M352.13,-179.5C353.52,-171.36 355.08,-162.22 356.57,-153.51" />
<polygon fill="black" stroke="black" points="360.03,-154.03 358.27,-143.58 353.13,-152.85 360.03,-154.03" />
</g>

<g id="node7" class="node">
<title>Ranges</title>
<ellipse fill="none" stroke="black" cx="284.71" cy="-26.87" rx="40.11" ry="26.74" />
<text text-anchor="middle" x="284.71" y="-30.67" font-family="monospace" font-size="12px"><a href="https://github.com/YOCKOW/SwiftRanges.git" xlink:href="https://github.com/YOCKOW/SwiftRanges.git" class="external_repository_anchor">Ranges</a></text>
<text text-anchor="middle" x="284.71" y="-15.67" font-family="monospace" font-size="12px">@3.1.2</text>
</g>

<g id="edge2" class="edge">
<title>BonaFideCharacterSet-&gt;Ranges</title>
<path fill="none" stroke="black" d="M386.38,-181.6C399.13,-171.56 411.8,-158.66 418.71,-143.48 428.6,-121.74 431.58,-109.86 418.71,-89.74 400.04,-60.55 363.71,-44.94 333.58,-36.7" />
<polygon fill="black" stroke="black" points="334.19,-33.24 323.64,-34.18 332.47,-40.03 334.19,-33.24" />
</g>

<g id="node2" class="node">
<title>Bootstring</title>
<ellipse fill="none" stroke="black" cx="549.71" cy="-26.87" rx="52.15" ry="26.74" />
<text text-anchor="middle" x="549.71" y="-30.67" font-family="monospace" font-size="12px"><a href="https://github.com/YOCKOW/SwiftBootstring.git" xlink:href="https://github.com/YOCKOW/SwiftBootstring.git" class="external_repository_anchor">Bootstring</a></text>
<text text-anchor="middle" x="549.71" y="-15.67" font-family="monospace" font-size="12px">@1.1.0</text>
</g>

<g id="node3" class="node">
<title>MailMessage</title>
<polygon fill="none" stroke="black" points="359.21,-484.7 268.21,-484.7 268.21,-448.7 359.21,-448.7 359.21,-484.7" />
<text text-anchor="middle" x="313.71" y="-463" font-family="monospace" font-size="12px">MailMessage</text>
</g>

<g id="edge3" class="edge">
<title>MailMessage-&gt;BonaFideCharacterSet</title>
<path fill="none" stroke="black" d="M320.4,-448.3C324.04,-438.08 328.29,-424.83 330.71,-412.7 342.37,-354.12 346.05,-284.6 347.2,-243.33" />
<polygon fill="black" stroke="black" points="350.7,-243.31 347.45,-233.22 343.7,-243.13 350.7,-243.31" />
</g>

<g id="node4" class="node">
<title>NetworkGear</title>
<ellipse fill="none" stroke="black" cx="460.71" cy="-296.09" rx="63.78" ry="26.74" />
<text text-anchor="middle" x="460.71" y="-299.89" font-family="monospace" font-size="12px"><a href="https://github.com/YOCKOW/SwiftNetworkGear.git" xlink:href="https://github.com/YOCKOW/SwiftNetworkGear.git" class="external_repository_anchor">NetworkGear</a></text>
<text text-anchor="middle" x="460.71" y="-284.89" font-family="monospace" font-size="12px">@0.14.6</text>
</g>

<g id="edge4" class="edge">
<title>MailMessage-&gt;NetworkGear</title>
<path fill="none" stroke="black" d="M331.44,-448.41C341.68,-438.23 354.68,-424.98 365.71,-412.7 390.09,-385.56 416.31,-353.4 435.01,-329.9" />
<polygon fill="black" stroke="black" points="437.83,-331.98 441.3,-321.97 432.35,-327.63 437.83,-331.98" />
</g>

<g id="node10" class="node">
<title>XHTML</title>
<ellipse fill="none" stroke="black" cx="275.71" cy="-385.83" rx="45.92" ry="26.74" />
<text text-anchor="middle" x="275.71" y="-389.63" font-family="monospace" font-size="12px"><a href="https://github.com/YOCKOW/SwiftXHTML.git" xlink:href="https://github.com/YOCKOW/SwiftXHTML.git" class="external_repository_anchor">XHTML</a></text>
<text text-anchor="middle" x="275.71" y="-374.63" font-family="monospace" font-size="12px">@2.3.0</text>
</g>

<g id="edge5" class="edge">
<title>MailMessage-&gt;XHTML</title>
<path fill="none" stroke="black" d="M305.46,-448.59C301.6,-440.57 296.85,-430.71 292.29,-421.25" />
<polygon fill="black" stroke="black" points="295.33,-419.49 287.83,-412 289.02,-422.53 295.33,-419.49" />
</g>

<g id="node11" class="node">
<title>yExtensions</title>
<ellipse fill="none" stroke="black" cx="127.71" cy="-206.35" rx="58.88" ry="26.74" />
<text text-anchor="middle" x="127.71" y="-210.15" font-family="monospace" font-size="12px"><a href="https://github.com/YOCKOW/ySwiftExtensions.git" xlink:href="https://github.com/YOCKOW/ySwiftExtensions.git" class="external_repository_anchor">yExtensions</a></text>
<text text-anchor="middle" x="127.71" y="-195.15" font-family="monospace" font-size="12px">@1.7.3</text>
</g>

<g id="edge6" class="edge">
<title>MailMessage-&gt;yExtensions</title>
<path fill="none" stroke="black" d="M267.97,-457.85C202.11,-443.81 82.78,-407.54 30.71,-322.96 18.19,-302.62 19.23,-290.16 30.71,-269.22 40.32,-251.7 57.23,-238.42 74.27,-228.75" />
<polygon fill="black" stroke="black" points="75.98,-231.8 83.16,-224.01 72.69,-225.62 75.98,-231.8" />
</g>

<g id="edge7" class="edge">
<title>NetworkGear-&gt;BonaFideCharacterSet</title>
<path fill="none" stroke="black" d="M431.02,-272.04C417.79,-261.77 402.01,-249.51 387.76,-238.45" />
<polygon fill="black" stroke="black" points="389.62,-235.46 379.57,-232.09 385.33,-240.99 389.62,-235.46" />
</g>

<g id="edge8" class="edge">
<title>NetworkGear-&gt;Bootstring</title>
<path fill="none" stroke="black" d="M492.55,-272.63C504.97,-262.13 518.05,-248.55 525.71,-233.22 552.84,-178.9 554.59,-106.7 552.66,-63.97" />
<polygon fill="black" stroke="black" points="556.14,-63.57 552.1,-53.77 549.16,-63.95 556.14,-63.57" />
</g>

<g id="node6" class="node">
<title>PublicSuffix</title>
<ellipse fill="none" stroke="black" cx="679.71" cy="-26.87" rx="59.29" ry="26.74" />
<text text-anchor="middle" x="679.71" y="-30.67" font-family="monospace" font-size="12px"><a href="https://github.com/YOCKOW/SwiftPublicSuffix.git" xlink:href="https://github.com/YOCKOW/SwiftPublicSuffix.git" class="external_repository_anchor">PublicSuffix</a></text>
<text text-anchor="middle" x="679.71" y="-15.67" font-family="monospace" font-size="12px">@2.0.2</text>
</g>

<g id="edge9" class="edge">
<title>NetworkGear-&gt;PublicSuffix</title>
<path fill="none" stroke="black" d="M497.45,-273.87C514.27,-263.05 533.74,-248.88 548.71,-233.22 599.07,-180.54 641,-105.71 663.02,-62.44" />
<polygon fill="black" stroke="black" points="666.18,-63.95 667.54,-53.45 659.92,-60.81 666.18,-63.95" />
</g>

<g id="edge10" class="edge">
<title>NetworkGear-&gt;Ranges</title>
<path fill="none" stroke="black" d="M468.97,-269.18C472.05,-258.21 475.18,-245.22 476.71,-233.22 485.06,-167.55 484.28,-135.78 436.71,-89.74 408.23,-62.18 365.82,-46.3 333.02,-37.55" />
<polygon fill="black" stroke="black" points="333.74,-34.12 323.18,-35.06 332.02,-40.9 333.74,-34.12" />
</g>

<g id="node9" class="node">
<title>UnicodeSupplement</title>
<ellipse fill="none" stroke="black" cx="206.71" cy="-116.61" rx="90.52" ry="26.74" />
<text text-anchor="middle" x="206.71" y="-120.41" font-family="monospace" font-size="12px"><a href="https://github.com/YOCKOW/SwiftUnicodeSupplement.git" xlink:href="https://github.com/YOCKOW/SwiftUnicodeSupplement.git" class="external_repository_anchor">UnicodeSupplement</a></text>
<text text-anchor="middle" x="206.71" y="-105.41" font-family="monospace" font-size="12px">@1.0.1</text>
</g>

<g id="edge11" class="edge">
<title>NetworkGear-&gt;UnicodeSupplement</title>
<path fill="none" stroke="black" d="M467.47,-268.96C472.44,-243.21 475.23,-204.24 454.71,-179.48 411.51,-127.36 372.37,-159.96 306.71,-143.48 298.98,-141.54 290.92,-139.5 282.88,-137.44" />
<polygon fill="black" stroke="black" points="283.66,-134.03 273.1,-134.93 281.92,-140.81 283.66,-134.03" />
</g>

<g id="edge12" class="edge">
<title>NetworkGear-&gt;yExtensions</title>
<path fill="none" stroke="black" d="M407.57,-281.09C347.53,-265.27 250.02,-239.58 187.4,-223.08" />
<polygon fill="black" stroke="black" points="188.22,-219.67 177.66,-220.51 186.44,-226.44 188.22,-219.67" />
</g>

<g id="edge13" class="edge">
<title>Predicate-&gt;Ranges</title>
<path fill="none" stroke="black" d="M341.81,-92.1C332.58,-81.72 321.62,-69.4 311.78,-58.33" />
<polygon fill="black" stroke="black" points="314.12,-55.69 304.86,-50.54 308.89,-60.34 314.12,-55.69" />
</g>

<g id="node8" class="node">
<title>StringComposition</title>
<ellipse fill="none" stroke="black" cx="124.71" cy="-296.09" rx="84.71" ry="26.74" />
<text text-anchor="middle" x="124.71" y="-299.89" font-family="monospace" font-size="12px"><a href="https://github.com/YOCKOW/SwiftStringComposition.git" xlink:href="https://github.com/YOCKOW/SwiftStringComposition.git" class="external_repository_anchor">StringComposition</a></text>
<text text-anchor="middle" x="124.71" y="-284.89" font-family="monospace" font-size="12px">@2.0.2</text>
</g>

<g id="edge14" class="edge">
<title>StringComposition-&gt;yExtensions</title>
<path fill="none" stroke="black" d="M125.61,-268.77C125.88,-260.8 126.18,-251.91 126.47,-243.42" />
<polygon fill="black" stroke="black" points="129.97,-243.47 126.82,-233.35 122.98,-243.23 129.97,-243.47" />
</g>

<g id="edge15" class="edge">
<title>UnicodeSupplement-&gt;Ranges</title>
<path fill="none" stroke="black" d="M229.27,-90.23C238.16,-80.23 248.45,-68.66 257.73,-58.22" />
<polygon fill="black" stroke="black" points="260.56,-60.3 264.59,-50.5 255.33,-55.65 260.56,-60.3" />
</g>

<g id="edge16" class="edge">
<title>XHTML-&gt;BonaFideCharacterSet</title>
<path fill="none" stroke="black" d="M286.02,-359.4C298.41,-328.87 319.26,-277.47 333.25,-242.99" />
<polygon fill="black" stroke="black" points="336.66,-243.89 337.18,-233.31 330.17,-241.26 336.66,-243.89" />
</g>

<g id="edge17" class="edge">
<title>XHTML-&gt;NetworkGear</title>
<path fill="none" stroke="black" d="M310.94,-368.12C339.09,-354.77 378.9,-335.89 410.4,-320.95" />
<polygon fill="black" stroke="black" points="411.93,-324.1 419.47,-316.65 408.93,-317.77 411.93,-324.1" />
</g>

<g id="edge18" class="edge">
<title>XHTML-&gt;Ranges</title>
<path fill="none" stroke="black" d="M230.7,-380.01C166.86,-372.14 55.04,-354.2 30.71,-322.96 -35.27,-238.25 15.95,-163.78 93.71,-89.74 131.95,-53.32 191.83,-38.34 234.34,-32.18" />
<polygon fill="black" stroke="black" points="235.02,-35.62 244.47,-30.82 234.1,-28.68 235.02,-35.62" />
</g>

<g id="edge19" class="edge">
<title>XHTML-&gt;StringComposition</title>
<path fill="none" stroke="black" d="M243.68,-366.22C223.11,-354.27 196.01,-338.52 172.86,-325.07" />
<polygon fill="black" stroke="black" points="174.61,-322.04 164.21,-320.04 171.1,-328.09 174.61,-322.04" />
</g>

<g id="edge20" class="edge">
<title>XHTML-&gt;UnicodeSupplement</title>
<path fill="none" stroke="black" d="M270,-359.04C264.73,-335.57 256.56,-299.98 248.71,-269.22 238.55,-229.39 225.82,-184 217.05,-153.35" />
<polygon fill="black" stroke="black" points="220.36,-152.19 214.24,-143.55 213.63,-154.12 220.36,-152.19" />
</g>

<g id="edge21" class="edge">
<title>XHTML-&gt;yExtensions</title>
<path fill="none" stroke="black" d="M267.42,-359.18C258.39,-334.16 242.06,-296.07 218.71,-269.22 206.22,-254.87 189.69,-242.32 174.14,-232.35" />
<polygon fill="black" stroke="black" points="175.98,-229.37 165.63,-227.08 172.29,-235.32 175.98,-229.37" />
</g>

<g id="edge22" class="edge">
<title>yExtensions-&gt;Ranges</title>
<path fill="none" stroke="black" d="M113.08,-179.99C100.72,-154.85 87.79,-116.34 106.71,-89.74 135.43,-49.34 192.5,-35.09 234.31,-30.19" />
<polygon fill="black" stroke="black" points="234.72,-33.66 244.31,-29.16 234.01,-26.7 234.72,-33.66" />
</g>

<g id="edge23" class="edge">
<title>yExtensions-&gt;UnicodeSupplement</title>
<path fill="none" stroke="black" d="M149.71,-180.91C158.23,-171.45 168.1,-160.49 177.21,-150.37" />
<polygon fill="black" stroke="black" points="179.9,-152.61 184,-142.84 174.7,-147.93 179.9,-152.61" />
</g>
</g>
</svg>